<?xml version="1.0" encoding="UTF-8" standalone="no"?>
<svg
   version="1.0"
   width="4000pt"
   height="1095pt"
   viewBox="0 0 4000 1095"
   preserveAspectRatio="xMidYMid meet"
   id="svg38"
   sodipodi:docname="logo-final-final.svg"
   inkscape:version="1.1.2 (1:1.1+202202050950+0a00cf5339)"
   xmlns:inkscape="http://www.inkscape.org/namespaces/inkscape"
   xmlns:sodipodi="http://sodipodi.sourceforge.net/DTD/sodipodi-0.dtd"
   xmlns="http://www.w3.org/2000/svg"
   xmlns:svg="http://www.w3.org/2000/svg">
  <defs
     id="defs42">
    <rect
       x="-3037.7854"
       y="-610.10638"
       width="3001.8169"
       height="2030.5886"
       id="rect4690" />
  </defs>
  <sodipodi:namedview
     id="namedview40"
     pagecolor="#ffffff"
     bordercolor="#666666"
     borderopacity="1.0"
     inkscape:pageshadow="2"
     inkscape:pageopacity="0.0"
     inkscape:pagecheckerboard="0"
     inkscape:document-units="pt"
     showgrid="false"
     inkscape:zoom="0.15"
     inkscape:cx="3796.6667"
     inkscape:cy="726.66667"
     inkscape:window-width="1366"
     inkscape:window-height="704"
     inkscape:window-x="0"
     inkscape:window-y="27"
     inkscape:window-maximized="1"
     inkscape:current-layer="svg38"
     width="4000pt" />
  <metadata
     id="metadata2">
Created by potrace 1.15, written by Peter Selinger 2001-2017
</metadata>
  <g
     id="g34433">
    <g
       transform="matrix(0.1,0,0,-0.1,0,1095)"
       fill="#000000"
       stroke="none"
       id="g36"
       style="fill:#b1976b;fill-opacity:1">
      <path
         d="m 9726,10922 -15,-29 70,-58 c 96,-80 174,-173 282,-335 190,-286 401,-576 498,-685 30,-33 90,-90 134,-125 268,-218 461,-370 471,-370 5,0 18,6 29,13 17,14 17,17 -4,106 -66,271 -196,594 -308,763 -155,234 -467,476 -802,624 -81,35 -321,124 -337,124 -2,0 -10,-13 -18,-28 z"
         id="path4"
         style="fill:#b1976b;fill-opacity:1" />
      <path
         d="m 2823,10826 c -425,-155 -810,-428 -996,-707 -107,-161 -218,-439 -286,-714 -47,-193 -47,-182 -14,-198 28,-14 28,-14 233,160 299,255 351,303 422,395 85,109 279,391 375,542 158,252 188,292 296,400 100,100 108,111 98,132 -13,30 -17,30 -128,-10 z"
         id="path6"
         style="fill:#b1976b;fill-opacity:1" />
      <path
         d="m 11016,10305 c -16,-24 -15,-28 75,-175 142,-235 165,-300 275,-780 64,-280 129,-512 173,-619 17,-41 31,-76 31,-79 0,-4 -20,26 -44,66 -135,219 -258,338 -565,552 -273,190 -495,390 -571,513 -32,52 -37,57 -64,52 -16,-3 -31,-7 -33,-9 -7,-6 37,-203 61,-272 52,-154 105,-241 272,-450 137,-171 213,-244 604,-579 330,-284 355,-308 479,-462 l 83,-102 25,16 c 18,12 23,22 19,38 -19,75 -26,280 -16,468 21,408 22,484 11,611 -26,302 -106,542 -252,761 -84,126 -261,296 -408,393 -68,45 -127,82 -131,82 -4,0 -15,-11 -24,-25 z"
         id="path8"
         style="fill:#b1976b;fill-opacity:1" />
      <path
         d="M 1553,10148 C 1150,9873 939,9520 891,9041 c -15,-146 -13,-251 9,-531 22,-265 26,-500 10,-594 -9,-54 -8,-60 13,-76 12,-10 25,-16 29,-14 3,2 47,57 96,122 105,137 200,231 527,525 311,278 408,379 547,564 155,206 224,350 262,543 30,159 31,147 -6,155 -20,5 -34,3 -36,-3 -2,-6 -25,-42 -53,-81 -106,-152 -258,-291 -573,-525 -262,-195 -404,-342 -513,-532 -20,-35 -38,-62 -40,-61 -1,2 11,37 27,78 41,106 101,345 165,660 30,151 67,317 81,369 29,110 92,248 188,409 l 68,114 -24,24 -24,23 z"
         id="path10"
         style="fill:#b1976b;fill-opacity:1" />
      <path
         d="m 11937,9375 c -18,-13 -18,-17 11,-92 65,-171 86,-324 71,-525 -6,-73 -23,-339 -38,-590 l -27,-457 26,-288 c 15,-158 25,-290 24,-292 -2,-2 -6,10 -9,25 -44,204 -136,445 -227,593 -55,90 -160,200 -564,593 -100,97 -200,200 -223,231 -35,46 -45,53 -67,49 -35,-6 -38,-19 -25,-104 25,-163 107,-399 200,-573 44,-83 225,-348 514,-753 194,-272 294,-456 393,-727 20,-55 29,-65 61,-65 17,0 24,8 29,28 55,242 143,558 219,792 113,348 143,499 152,775 12,354 -51,649 -206,960 -91,185 -256,436 -285,435 -6,0 -19,-7 -29,-15 z"
         id="path12"
         style="fill:#b1976b;fill-opacity:1" />
      <path
         d="M 678,9173 C 477,8890 367,8625 298,8255 c -17,-94 -17,-493 0,-600 30,-181 69,-326 172,-635 60,-179 134,-417 165,-530 31,-113 58,-211 61,-218 2,-8 16,-12 34,-10 29,3 33,8 59,83 101,288 185,439 519,940 358,534 426,665 502,963 17,68 42,241 35,249 -1,2 -15,5 -31,8 -26,5 -32,1 -64,-47 -19,-29 -179,-199 -356,-378 -353,-357 -397,-413 -485,-610 -49,-110 -103,-275 -138,-420 -14,-57 -19,-70 -16,-40 2,25 11,164 21,310 l 17,265 -37,450 c -21,248 -43,513 -49,590 -18,211 -2,353 63,539 11,33 19,60 18,61 -6,5 -47,25 -51,25 -2,0 -29,-35 -59,-77 z"
         id="path14"
         style="fill:#b1976b;fill-opacity:1" />
      <path
         d="m 4006,9058 c -8,-13 -400,-725 -871,-1583 l -857,-1560 91,-87 c 142,-136 365,-307 512,-392 l 46,-26 h 1093 1093 l 114,76 c 63,41 158,110 211,153 97,78 312,269 312,277 0,3 -6,15 -14,27 -33,52 -1656,3010 -1656,3018 0,5 449,9 1105,9 h 1105 v -38 c 0,-21 -49,-655 -110,-1408 -60,-753 -125,-1574 -145,-1824 -19,-250 -40,-495 -46,-545 -31,-251 -137,-432 -300,-512 l -66,-33 h -914 -914 l -50,-24 c -66,-30 -120,-91 -139,-157 -20,-65 -20,-63 0,-128 18,-61 69,-123 128,-154 l 41,-22 2635,-3 c 2920,-2 2685,-8 2768,63 54,47 83,110 83,178 0,92 -43,164 -130,215 l -46,27 -955,5 -955,5 -60,30 c -155,78 -262,262 -294,505 -6,47 -31,348 -56,670 -26,322 -92,1160 -148,1863 -57,703 -101,1280 -98,1283 2,2 499,4 1104,4 1043,0 1099,-1 1092,-17 -3,-10 -380,-697 -838,-1527 l -831,-1510 85,-79 c 434,-406 899,-649 1377,-718 124,-18 175,-21 327,-16 193,6 294,21 472,67 390,103 821,353 1136,659 l 88,86 -163,295 c -90,162 -483,874 -873,1583 L 8786,9080 H 6403 4020 Z m 788,-1622 c 427,-775 776,-1411 776,-1413 0,-2 -700,-3 -1556,-3 -856,0 -1554,4 -1552,8 10,25 1551,2822 1553,2820 2,-2 352,-637 779,-1412 z m 4786,-19 768,-1392 -1556,-3 c -855,-1 -1557,0 -1559,2 -2,2 346,640 773,1416 729,1324 779,1411 792,1391 8,-11 360,-648 782,-1414 z"
         id="path16"
         style="fill:#b1976b;fill-opacity:1" />
      <path
         d="m 12570,7548 c 0,-142 -15,-306 -39,-424 -19,-94 -56,-196 -193,-539 -98,-244 -198,-515 -227,-612 -12,-40 -37,-164 -56,-275 -34,-207 -55,-312 -60,-306 -1,2 1,46 5,98 13,177 -11,412 -61,600 -59,221 -128,367 -346,730 -186,311 -209,354 -243,448 -20,56 -25,62 -51,62 -15,0 -30,-3 -32,-7 -9,-15 13,-299 33,-448 56,-400 123,-691 247,-1070 129,-397 178,-593 204,-812 11,-91 7,-284 -6,-328 -5,-16 0,-23 24,-31 l 29,-12 68,106 c 84,130 203,294 318,438 372,462 558,964 573,1549 8,302 -17,529 -89,818 l -32,127 h -33 -33 z"
         id="path18"
         style="fill:#b1976b;fill-opacity:1" />
      <path
         d="M 114,7496 C 104,7465 70,7315 56,7240 9,6985 -4,6611 25,6380 90,5861 282,5426 631,5010 c 132,-158 331,-425 386,-519 1,-2 16,2 33,9 20,8 29,18 26,27 -4,8 -11,57 -17,108 -25,216 31,525 196,1070 83,278 119,431 164,705 43,260 61,429 68,621 l 6,166 -24,6 c -37,10 -37,10 -52,-40 -24,-82 -69,-169 -216,-428 C 1033,6442 965,6310 917,6180 812,5897 770,5565 805,5285 c 12,-96 -17,23 -65,262 -54,275 -89,380 -240,738 -237,561 -249,592 -274,712 -27,128 -46,304 -46,424 v 77 l -31,4 c -17,3 -32,0 -35,-6 z"
         id="path20"
         style="fill:#b1976b;fill-opacity:1" />
      <path
         d="m 11295,5735 c -99,-324 -157,-749 -190,-1405 -22,-425 -46,-653 -86,-814 -11,-43 -51,-157 -90,-253 -66,-167 -69,-176 -53,-194 9,-11 23,-19 30,-19 18,0 541,351 696,467 608,457 941,860 1098,1330 82,246 117,527 94,752 -7,60 -7,61 -38,61 -29,0 -33,-4 -50,-52 -33,-95 -121,-281 -178,-378 -97,-164 -178,-269 -333,-429 -146,-151 -241,-264 -356,-421 -84,-115 -269,-383 -345,-500 -85,-131 -145,-212 -152,-205 -3,3 9,25 27,50 73,102 135,274 166,465 20,124 23,450 6,600 -6,52 -43,268 -82,480 -39,212 -73,418 -77,459 -7,71 -9,75 -34,82 -28,7 -28,6 -53,-76 z"
         id="path22"
         style="fill:#b1976b;fill-opacity:1" />
      <path
         d="m 1428,5683 c -15,-4 -18,-16 -18,-71 0,-37 -27,-236 -59,-442 -77,-486 -84,-563 -78,-822 5,-224 16,-310 63,-468 27,-89 93,-231 123,-265 10,-11 26,-33 36,-50 36,-62 -54,46 -142,173 -340,484 -477,656 -704,887 -195,197 -235,245 -328,383 -69,102 -184,319 -226,425 -23,56 -31,67 -51,67 -36,0 -44,-29 -44,-155 0,-304 61,-565 195,-841 247,-506 685,-914 1570,-1459 87,-54 167,-100 177,-103 10,-2 27,3 37,12 18,17 16,23 -56,189 -41,95 -83,204 -93,242 -46,166 -79,418 -110,845 -46,610 -104,987 -205,1333 -39,131 -40,132 -87,120 z"
         id="path24"
         style="fill:#b1976b;fill-opacity:1" />
      <path
         d="m 10817,4389 c -94,-95 -178,-223 -277,-424 -69,-139 -103,-231 -264,-712 -102,-304 -206,-601 -231,-660 -102,-236 -251,-496 -336,-585 -42,-45 -46,-55 -26,-81 11,-16 21,-14 137,18 211,60 386,102 600,145 545,109 967,333 1335,711 268,275 455,586 591,981 l 23,68 -22,15 c -12,8 -24,15 -28,15 -4,0 -70,-73 -147,-162 -233,-272 -360,-384 -547,-484 -434,-231 -1156,-689 -1330,-843 -16,-14 -5,3 25,37 270,314 415,647 465,1069 55,465 82,635 130,823 l 24,95 -24,24 -24,24 z"
         id="path26"
         style="fill:#b1976b;fill-opacity:1" />
      <path
         d="m 1906,4321 c -17,-19 -17,-25 12,-138 52,-200 105,-493 132,-723 53,-459 231,-857 506,-1135 32,-33 49,-53 38,-45 -12,8 -67,48 -122,87 -262,189 -700,450 -1172,698 -312,164 -385,225 -746,633 -28,32 -32,34 -55,22 -13,-7 -25,-14 -26,-15 -6,-4 51,-156 98,-264 235,-529 614,-937 1112,-1196 257,-134 476,-206 772,-256 199,-33 381,-72 584,-124 74,-19 140,-35 146,-35 7,0 17,11 23,24 9,21 7,27 -20,52 -46,44 -140,173 -205,282 -122,208 -207,405 -373,867 -88,248 -179,500 -201,560 -50,136 -149,328 -237,460 -63,95 -216,265 -238,265 -6,0 -19,-9 -28,-19 z"
         id="path28"
         style="fill:#b1976b;fill-opacity:1" />
      <path
         d="m 9965,3078 c -113,-59 -257,-198 -553,-533 -238,-269 -507,-538 -624,-625 -162,-121 -487,-283 -655,-326 -70,-18 -73,-19 -73,-49 v -30 l 443,-88 c 243,-48 539,-110 657,-138 211,-50 218,-51 410,-56 149,-4 223,-1 313,11 387,54 764,214 1047,443 150,122 324,314 420,463 l 33,51 -21,22 -21,21 -58,-46 c -249,-195 -574,-325 -933,-373 -63,-8 -223,-19 -355,-25 -281,-11 -549,-44 -909,-111 -59,-11 -110,-18 -112,-16 -2,2 35,18 84,37 186,70 284,133 403,257 154,161 294,404 465,807 52,122 103,233 114,248 16,21 18,32 10,53 -12,30 -32,31 -85,3 z"
         id="path30"
         style="fill:#b1976b;fill-opacity:1" />
      <path
         d="m 2805,2979 c -5,-23 -2,-36 13,-52 11,-12 59,-109 106,-214 182,-409 307,-623 466,-796 117,-128 231,-200 421,-268 109,-39 151,-58 99,-46 -42,10 -371,57 -553,78 -106,13 -288,24 -472,29 -311,9 -401,17 -570,51 -240,49 -507,162 -690,294 l -90,64 -22,-21 c -27,-25 -27,-24 65,-146 331,-436 834,-717 1419,-793 113,-14 390,-14 479,2 38,6 182,40 319,74 210,54 1006,235 1029,235 4,0 6,14 4,32 -3,30 -5,32 -88,53 -121,31 -202,64 -394,161 -182,91 -221,116 -336,208 -82,66 -375,356 -708,704 -207,215 -333,325 -417,363 -57,26 -72,24 -80,-12 z"
         id="path32"
         style="fill:#b1976b;fill-opacity:1" />
      <path
         d="m 7020,1549 c -124,-13 -306,-50 -457,-93 l -121,-35 -69,20 c -91,26 -267,64 -378,81 -135,20 -483,17 -620,-6 -191,-31 -251,-51 -681,-232 -899,-377 -914,-382 -1233,-406 -302,-22 -592,25 -780,128 -60,33 -64,34 -82,18 -23,-20 -24,-33 -5,-48 7,-6 56,-45 107,-87 408,-332 852,-483 1316,-448 152,11 246,30 378,74 239,79 509,238 772,454 221,180 253,204 343,250 103,53 192,84 284,100 99,18 377,12 376,-8 -1,-3 -35,-22 -78,-41 C 5840,1155 5482,911 5190,654 5065,544 4787,262 4792,251 c 2,-5 62,-62 134,-129 l 132,-121 80,93 c 220,255 560,593 792,786 156,131 335,257 461,327 l 56,31 90,-47 c 112,-60 294,-183 438,-297 233,-185 567,-499 777,-731 62,-68 115,-122 119,-121 3,2 64,58 134,125 l 127,122 -61,69 c -69,78 -282,273 -411,378 -274,222 -594,426 -850,540 -47,21 -87,39 -89,41 -11,8 13,13 118,24 298,33 559,-57 821,-281 141,-121 401,-291 587,-384 236,-118 414,-164 668,-173 480,-18 895,142 1318,506 48,41 87,78 87,82 0,4 -8,17 -19,30 l -18,22 -31,-22 c -173,-123 -540,-190 -890,-162 -270,21 -259,18 -1227,396 -355,138 -409,156 -570,181 -115,18 -422,26 -545,13 z"
         id="path34"
         style="fill:#b1976b;fill-opacity:1" />
    </g>
    <text
       xml:space="preserve"
       transform="matrix(0.75,0,0,0.75,3631.2169,467.40555)"
       id="text4688"
       style="font-size:600px;line-height:1.25;font-family:'Playfair Display';-inkscape-font-specification:'Playfair Display';white-space:pre;shape-inside:url(#rect4690);fill:#b1976b;fill-opacity:1"><tspan
         x="-3037.7852"
         y="-48.083713"
         id="tspan34525"><tspan
           dx="0 0 0 0 0 0.00012207031 0 0.00012207031 0 -0.00012207031"
           id="tspan34523">Advokatska
</tspan></tspan><tspan
         x="-3037.7852"
         y="701.91629"
         id="tspan34527">Kancelarija</tspan></text>
  </g>
</svg>
